{"title":"Azhar (2016) Tiny 720p Blu-ray x264 AAC 5.1 ESub -[DDR ExclusivE","uid":15420208,"size":758261028,"categoryP":"video","categoryS":"hd___movies","magnet":"?xt=urn:btih:59822c44b33928e788e86672f224955f2743a3ad&amp;dn=Azhar+%282016%29+Tiny+720p+Blu-ray+x264+AAC+5.1+ESub+-%5BDDR+ExclusivE&amp;tr=udp%3A%2F%2Ftracker.leechers-paradise.org%3A6969&amp;tr=udp%3A%2F%2Fzer0day.ch%3A1337&amp;tr=udp%3A%2F%2Fopen.demonii.com%3A1337&amp;tr=udp%3A%2F%2Ftracker.coppersurfer.tk%3A6969&amp;tr=udp%3A%2F%2Fexodus.desync.com%3A6969","seeders":27,"leechers":6,"uploader":"SaM","files":3,"time":1469628955,"description":"\n** AZHAR**\r\n\r\n** 2016 **\r\n** Tiny 720p / Blu-Ray / x264 / AAC 5.1 **\r\n\r\n** English Subtitle(s) **\r\n\r\n\r\n\r\n[ SCREENS ]\r\n \nhttp://extraimago.com/image/afdA \nhttp://extraimago.com/image/afdv \nhttp://extraimago.com/image/afdu \nhttp://extraimago.com/image/afdV \nhttp://extraimago.com/image/afd6 \nhttp://extraimago.com/image/afdx \nhttp://extraimago.com/image/afdt \nhttp://extraimago.com/image/afdo \nhttp://extraimago.com/image/afdk \nhttp://extraimago.com/image/afdH \nhttp://extraimago.com/image/afdF \nhttp://extraimago.com/image/afdD \nhttp://extraimago.com/image/afd5 \nhttp://extraimago.com/image/afdg \nhttp://extraimago.com/image/afdX \nhttp://extraimago.com/image/afdP\r\n\r\n[ Info ]\r\nSource : DDR Blu-ray BD50\r\nFormat : Matroska\r\nFile size : 719 MiB\r\nDuration : 2h 10mn\r\nOverall bit rate : 773 Kbps\r\nEncoded date : UTC 2016-07-26 23:01:21\r\n\r\nVideo\r\nFormat : AVC\r\nFormat/Info : Advanced Video Codec\r\nFormat profile :   \r\nFormat settings, CABAC : Yes\r\nFormat settings, ReFrames : 12 frames\r\nCodec ID : V_MPEG4/ISO/AVC\r\nDuration : 2h 10mn\r\nBit rate : 576 Kbps\r\nWidth : 1 280 pixels\r\nHeight : 544 pixels\r\nDisplay aspect ratio : 2.35:1\r\nFrame rate mode : Constant\r\nFrame rate : 24.000 fps\r\nColor space : YUV\r\nChroma subsampling : 4:2:0\r\nBit depth : 8 bits\r\nScan type : Progressive\r\nBits/(Pixel*Frame) : 0.034\r\nStream size : 536 MiB (74%)\r\nLanguage : English\r\nDefault : Yes\r\nForced : No\r\nColor range : Limited\r\nColor primaries : BT.709\r\n\r\nAudio\r\nFormat : AAC\r\nFormat/Info : Advanced Audio Codec\r\nFormat profile : LC\r\nCodec ID : A_AAC\r\nDuration : 2h 10mn\r\nBit rate : 192 Kbps\r\nChannel(s) : 6 channels\r\nChannel positions : Front: L C R, Side: L R, LFE\r\nSampling rate : 48.0 KHz\r\nFrame rate : 46.875 fps (1024 spf)\r\nCompression mode : Lossy\r\nDelay relative to video : 19ms\r\nStream size : 178 MiB (25%)\r\nLanguage : Hindi\r\nDefault : Yes\r\nForced : No\r\n\r\nText\r\nID : 3\r\nFormat : VobSub\r\nMuxing mode : zlib\r\nCodec ID : S_VOBSUB\r\nCodec ID/Info : Picture based subtitle format used on DVDs\r\nDuration : 2h 7mn\r\nBit rate : 5 216 bps\r\nCount of elements : 2019\r\nStream size : 2.94 MiB (0%)\r\nLanguage : English\r\nDefault : Yes\r\nForced : No\r\n\r\nChapters = YES\r\n\r\n[ A DDR Exclusive Tiny Encode !!! NOTICE ]","torrent":{"xt":"urn:btih:59822c44b33928e788e86672f224955f2743a3ad","amp;dn":"Azhar+%282016%29+Tiny+720p+Blu-ray+x264+AAC+5.1+ESub+-%5BDDR+ExclusivE","amp;tr":["udp%3A%2F%2Ftracker.leechers-paradise.org%3A6969","udp%3A%2F%2Fzer0day.ch%3A1337","udp%3A%2F%2Fopen.demonii.com%3A1337","udp%3A%2F%2Ftracker.coppersurfer.tk%3A6969","udp%3A%2F%2Fexodus.desync.com%3A6969"],"infoHash":"59822c44b33928e788e86672f224955f2743a3ad","infoHashBuffer":{"type":"Buffer","data":[89,130,44,68,179,57,40,231,136,232,102,114,242,36,149,95,39,67,163,173]},"announce":[],"urlList":[]}}